<svg xmlns="http://www.w3.org/2000/svg" viewBox="0 0 240.63 240.63"><defs><style>.a{fill:#036eb8;}.b{fill:#fff;}</style></defs><title>na</title><rect class="a" width="240.63" height="240.63" rx="26" ry="26"/><path class="b" d="M172.71,118.22c-5.13-.62-8.2-.82-18-.82h-48c-9.64,0-12.92.21-18,.82V105.3c-13.95,10.87-23.38,16.61-41.22,25a82.72,82.72,0,0,0-13.95-19.07c29.12-11.69,47-23.58,61.93-41.43H65c-10.87,0-19.07.41-25,1V48.09a206.91,206.91,0,0,0,26,1.23h42.86c3.69-7.38,5.95-13.95,6.77-20.1l26.25,2.67a36.87,36.87,0,0,0-3.08,6.36c-2.26,4.92-2.87,6.56-4.92,11.07h60.5a219.66,219.66,0,0,0,26.87-1.23V70.85c-5.95-.62-15-1-25.22-1H166.14c13.74,17.64,37.12,32.61,63.16,40.4a88.62,88.62,0,0,0-12.71,20.71c-17.23-6.77-29.94-14.15-43.89-25.63ZM101.13,167C83.91,190.82,73.45,201.28,54,215.43c-5.74-7.59-9.43-11.89-16.2-17.64,21.33-12.51,29.94-20.71,43.27-41ZM68.53,153.91c-8.41,0-15.18.41-21.74,1V132.37c5.54.82,11.07,1,20.3,1H195.47c9.64,0,14.77-.21,20.3-1v22.56c-7-.62-13.33-1-21.94-1h-49v42.86c0,10.25-2.26,15.38-7.79,18.46-3.28,1.64-12.1,2.87-21.74,2.87-3.28,0-9-.21-14.77-.41a80.71,80.71,0,0,0-6.36-20.92,149.85,149.85,0,0,0,19.48,1.44c7,0,8.2-.82,8.2-5.95V153.91Zm86.13-56.19c4.1,0,5.33,0,9.23-.21a129.74,129.74,0,0,1-23-27.69H122.46c-7,10.46-13.74,18-24.61,27.69,3.69.21,5.13.21,8.82.21Zm24.4,59.06c16,21.12,23.79,27.69,45.94,39.17a115.36,115.36,0,0,0-15.38,19.28c-22.15-14.36-33-24.81-49.42-48.19Z" transform="translate(-9.38 -9.38)"/></svg>